<svg width="42" height="41" viewBox="0 0 42 41" fill="none" xmlns="http://www.w3.org/2000/svg">
<path d="M20.9998 0.166626C18.264 0.166626 15.5549 0.705496 13.0273 1.75247C10.4996 2.79944 8.203 4.33401 6.26845 6.26857C2.36144 10.1756 0.166504 15.4746 0.166504 21C0.166504 30.2083 6.14567 38.0208 14.4165 40.7916C15.4582 40.9583 15.7915 40.3125 15.7915 39.75C15.7915 39.2708 15.7915 37.9583 15.7915 36.2291C10.0207 37.4791 8.7915 33.4375 8.7915 33.4375C7.83317 31.0208 6.479 30.375 6.479 30.375C4.58317 29.0833 6.62484 29.125 6.62484 29.125C8.70817 29.2708 9.81234 31.2708 9.81234 31.2708C11.6248 34.4375 14.6873 33.5 15.8748 33C16.0623 31.6458 16.604 30.7291 17.1873 30.2083C12.5623 29.6875 7.70817 27.8958 7.70817 19.9583C7.70817 17.6458 8.49984 15.7916 9.854 14.3125C9.64567 13.7916 8.9165 11.625 10.0623 8.81246C10.0623 8.81246 11.8123 8.24996 15.7915 10.9375C17.4373 10.4791 19.229 10.25 20.9998 10.25C22.7707 10.25 24.5623 10.4791 26.2082 10.9375C30.1873 8.24996 31.9373 8.81246 31.9373 8.81246C33.0832 11.625 32.354 13.7916 32.1457 14.3125C33.4998 15.7916 34.2915 17.6458 34.2915 19.9583C34.2915 27.9166 29.4165 29.6666 24.7707 30.1875C25.5207 30.8333 26.2082 32.1041 26.2082 34.0416C26.2082 36.8333 26.2082 39.0833 26.2082 39.75C26.2082 40.3125 26.5415 40.9791 27.604 40.7916C35.8748 38 41.8332 30.2083 41.8332 21C41.8332 18.2641 41.2943 15.555 40.2473 13.0274C39.2004 10.4998 37.6658 8.20312 35.7312 6.26857C33.7967 4.33401 31.5 2.79944 28.9724 1.75247C26.4448 0.705496 23.7357 0.166626 20.9998 0.166626Z" fill="#ACACAC"/>
</svg>