<svg width="42" height="42" viewBox="0 0 42 42" fill="none" xmlns="http://www.w3.org/2000/svg">
<path d="M12.2498 0.166626H29.7498C36.4165 0.166626 41.8332 5.58329 41.8332 12.25V29.75C41.8332 32.9547 40.5601 36.0281 38.294 38.2942C36.028 40.5602 32.9545 41.8333 29.7498 41.8333H12.2498C5.58317 41.8333 0.166504 36.4166 0.166504 29.75V12.25C0.166504 9.04526 1.43957 5.97182 3.70563 3.70575C5.9717 1.43969 9.04514 0.166626 12.2498 0.166626ZM11.8332 4.33329C9.84405 4.33329 7.93639 5.12347 6.52987 6.52999C5.12335 7.93652 4.33317 9.84417 4.33317 11.8333V30.1666C4.33317 34.3125 7.68734 37.6666 11.8332 37.6666H30.1665C32.1556 37.6666 34.0633 36.8765 35.4698 35.4699C36.8763 34.0634 37.6665 32.1558 37.6665 30.1666V11.8333C37.6665 7.68746 34.3123 4.33329 30.1665 4.33329H11.8332ZM31.9373 7.45829C32.628 7.45829 33.2904 7.73266 33.7788 8.22104C34.2671 8.70941 34.5415 9.37179 34.5415 10.0625C34.5415 10.7531 34.2671 11.4155 33.7788 11.9039C33.2904 12.3923 32.628 12.6666 31.9373 12.6666C31.2467 12.6666 30.5843 12.3923 30.0959 11.9039C29.6075 11.4155 29.3332 10.7531 29.3332 10.0625C29.3332 9.37179 29.6075 8.70941 30.0959 8.22104C30.5843 7.73266 31.2467 7.45829 31.9373 7.45829ZM20.9998 10.5833C23.7625 10.5833 26.412 11.6808 28.3655 13.6343C30.319 15.5878 31.4165 18.2373 31.4165 21C31.4165 23.7626 30.319 26.4122 28.3655 28.3657C26.412 30.3192 23.7625 31.4166 20.9998 31.4166C18.2372 31.4166 15.5876 30.3192 13.6341 28.3657C11.6806 26.4122 10.5832 23.7626 10.5832 21C10.5832 18.2373 11.6806 15.5878 13.6341 13.6343C15.5876 11.6808 18.2372 10.5833 20.9998 10.5833ZM20.9998 14.75C19.3422 14.75 17.7525 15.4084 16.5804 16.5805C15.4083 17.7526 14.7498 19.3424 14.7498 21C14.7498 22.6576 15.4083 24.2473 16.5804 25.4194C17.7525 26.5915 19.3422 27.25 20.9998 27.25C22.6574 27.25 24.2472 26.5915 25.4193 25.4194C26.5914 24.2473 27.2498 22.6576 27.2498 21C27.2498 19.3424 26.5914 17.7526 25.4193 16.5805C24.2472 15.4084 22.6574 14.75 20.9998 14.75Z" fill="#ACACAC"/>
</svg>
